Coordinates
version=1
nRows=10
nColumns=34
inDegrees=yes

Units are S.I. units (second, meters, Newtons, ...)
If the header above contains a line with 'inDegrees', this indicates whether rotational values are in degrees (yes) or radians (no).

endheader
time	pelvis_tilt	pelvis_list	pelvis_rotation	pelvis_tx	pelvis_ty	pelvis_tz	hip_flexion_r	hip_adduction_r	hip_rotation_r	knee_angle_r	ankle_angle_r	subtalar_angle_r	mtp_angle_r	hip_flexion_l	hip_adduction_l	hip_rotation_l	knee_angle_l	ankle_angle_l	subtalar_angle_l	mtp_angle_l	lumbar_extension	lumbar_bending	lumbar_rotation	arm_flex_r	arm_add_r	arm_rot_r	elbow_flex_r	pro_sup_r	arm_flex_l	arm_add_l	arm_rot_l	elbow_flex_l	pro_sup_l
      0.00000000	      0.49328937	     -1.60991557	     -1.10331708	     -0.06043258	      1.24776617	     -0.09746644	     -4.40668213	     -0.22843894	     -0.93431793	      0.00000000	     10.88663539	     -1.97404142	      0.00000000	     -4.88597461	     -2.23540021	     -2.98270426	      0.65756430	     13.50074370	      2.82493374	      0.00000000	     -6.90357085	      1.11778388	     -3.35168922	      6.16561220	     -7.80654354	     26.81325602	     26.15686033	     75.88151188	      3.53395063	     -8.67098835	     25.22057805	     25.41379926	     66.81982995
      0.01666670	     -1.55234721	     -2.16009362	     -1.18025292	     -0.05829691	      1.24367042	     -0.09848918	     -2.41745040	      0.35686713	      0.61591682	      0.00000000	     12.30883711	     -0.88888073	      0.00000000	     -2.60394349	     -2.47157078	     -2.80203296	      0.47342676	     13.25717751	      2.81169572	      0.00000000	     -3.59280894	      1.92251316	     -3.18708001	      5.44733042	     -8.17161131	     27.44666473	     26.29828888	     76.02498166	      2.99113675	     -8.36914670	     26.18441775	     25.66973473	     67.20065968
      0.03333330	     -2.67908345	     -1.42541976	     -1.62516591	     -0.05672994	      1.24102608	     -0.09735723	     -1.15747167	     -0.53348652	      0.81473014	      0.00000000	     12.57887275	     -0.69267184	      0.00000000	     -1.41838550	     -1.77852674	     -3.20454087	      0.49805351	     13.59377939	      3.24371425	      0.00000000	     -1.85901630	      0.86919153	     -2.55102609	      5.28486956	     -8.37026301	     29.90785431	     26.66249387	     76.70905094	      3.43894886	     -9.10625855	     30.16414524	     25.01355541	     68.75096849
      0.05000000	     -2.73142319	     -0.99191889	     -2.08507795	     -0.05770677	      1.24107482	     -0.09637115	     -1.11154715	     -1.07327646	      1.18575568	      0.00000000	     12.60547101	     -0.40498579	      0.00000000	     -1.74996537	     -1.32249061	     -3.35741471	      0.00000000	     13.26078389	      3.08488585	      0.00000000	     -1.57546739	      0.25994128	     -2.40498618	      5.37564113	     -8.09432621	     30.01849698	     26.76156560	     76.75192149	      3.31057230	     -9.27242124	     30.40405798	     24.84253173	     68.85279704
      0.06666670	     -3.31225051	     -0.72696600	     -2.42165904	     -0.05796944	      1.24125202	     -0.09567075	     -0.41313007	     -1.33619108	      1.61293673	      0.00000000	     12.79662825	     -0.35538220	      0.00000000	     -1.12221954	     -1.02921078	     -3.25109479	      0.00000000	     13.06953376	      2.40714671	      0.00000000	     -0.70569171	      0.00793155	     -1.55152366	      5.17269068	     -8.02298282	     30.82487999	     26.57047978	     77.82182006	      4.23134763	     -9.30693188	     34.69334449	     23.03627340	     71.14131593
      0.08333330	     -3.32398703	     -0.66310301	     -2.45122352	     -0.05784377	      1.24143888	     -0.09576314	     -0.43785055	     -1.38725524	      1.69068601	      0.00000000	     12.74316260	     -0.29128078	      0.00000000	     -1.18711495	     -0.92927655	     -3.21612679	      0.00000000	     13.06405014	      2.41847992	      0.00000000	     -0.54920145	      0.05969428	     -1.44326723	      5.30303835	     -7.87530155	     30.81261071	     26.64413051	     77.82827566	      4.23281195	     -9.23543521	     34.69520436	     23.06263848	     71.14964180
      0.10000000	     -3.84976219	     -0.49566700	     -2.84410148	     -0.05753657	      1.23941649	     -0.09531510	      0.15826079	     -1.57854011	      2.12976426	      0.00000000	     12.66002607	     -0.27912812	      0.00000000	     -0.74009736	     -0.71706283	     -3.31263375	      0.00000000	     12.99483487	      2.21230180	      0.00000000	      0.33595336	     -0.05458977	     -0.55615599	      4.92886394	     -7.72026789	     30.17849059	     26.65064584	     77.99015626	      4.12071927	     -8.96582174	     34.26303072	     23.14079727	     71.34438288
      0.11666670	     -3.83777009	     -0.45826431	     -2.85641796	     -0.05807182	      1.24096546	     -0.09508662	      0.16148894	     -1.62299645	      2.17373052	      0.00000000	     12.64310038	     -0.25856723	      0.00000000	     -0.76072367	     -0.64508991	     -3.20033444	      0.00000000	     13.00334506	      2.25678350	      0.00000000	      0.46497373	      0.02348672	     -0.45846265	      5.06159549	     -7.58391821	     30.15102343	     26.72395146	     77.99712106	      4.15200867	     -8.94090644	     34.23334128	     23.15544732	     71.35122078
      0.13333330	     -3.85464742	     -0.42851526	     -2.96854647	     -0.05715881	      1.24086312	     -0.09527337	      0.18124965	     -1.67554969	      2.23015359	      0.00000000	     12.60579513	     -0.23156527	      0.00000000	     -0.78605465	     -0.58381162	     -2.99751400	      0.00000000	     12.99452941	      2.34951411	      0.00000000	      0.60809191	      0.08657556	     -0.32847912	      5.14842261	     -7.43547107	     30.11373593	     26.78980230	     78.00595989	      4.15372516	     -8.86152444	     34.18153850	     23.18913578	     71.35797211
      0.15000000	     -3.84064074	     -0.42486031	     -2.95154019	     -0.05944873	      1.24143799	     -0.09455279	      0.21828485	     -1.65856364	      2.23612282	      0.00000000	     12.60528408	     -0.22960013	      0.00000000	     -0.80122056	     -0.56638144	     -2.98957327	      0.00000000	     12.99610715	      2.35140501	      0.00000000	      0.62125369	      0.08908453	     -0.31563229	      5.15220527	     -7.42665636	     30.11020018	     26.79392513	     78.00664266	      4.15138242	     -8.85617628	     34.17589401	     23.19212375	     71.35832121
